<svg width="36" height="36" viewBox="0 0 36 36" fill="none" xmlns="http://www.w3.org/2000/svg">
<path fill-rule="evenodd" clip-rule="evenodd" d="M14.7634 23.5411C5.06711 40.1529 30.9461 40.1529 21.2366 23.5411C36.022 40.1529 40.1533 36.029 23.5402 21.2375C40.1533 30.9341 40.1533 5.05397 23.5402 14.764C40.1533 -0.0276302 36.0275 -4.15345 21.2366 12.4602C30.9328 -4.15345 5.05379 -4.15345 14.7634 12.4602C-0.0276004 -4.15345 -4.15326 -0.0276302 12.4598 14.764C-4.15326 5.06729 -4.15326 30.9474 12.4598 21.2375C-4.15326 36.029 -0.0276004 40.1529 14.7634 23.5411ZM18 22.5C20.4853 22.5 22.5 20.4852 22.5 18C22.5 15.5147 20.4853 13.5 18 13.5C15.5147 13.5 13.5 15.5147 13.5 18C13.5 20.4852 15.5147 22.5 18 22.5Z" fill="#A0660D" fill-opacity="0.85"/>
</svg>
